<svg xmlns="http://www.w3.org/2000/svg" viewBox="0 0 100 100">
  <defs>
    <radialGradient id="rg" cx="44%" cy="38%" r="58%">
      <stop offset="0%"   stop-color="#FFF2C0"/>
      <stop offset="18%"  stop-color="#F5C830"/>
      <stop offset="55%"  stop-color="#E8A000"/>
      <stop offset="100%" stop-color="#A86000"/>
    </radialGradient>
    <radialGradient id="rg2" cx="50%" cy="50%" r="50%">
      <stop offset="0%"   stop-color="#FFE580" stop-opacity="0.45"/>
      <stop offset="100%" stop-color="#8B5000" stop-opacity="0.0"/>
    </radialGradient>
    <clipPath id="clip">
      <path d="M 50.0 9.0 C 52.8 9.1 54.7 15.2 57.6 16.6 C 60.5 18.0 63.3 15.8 66.1 16.6 C 68.8 17.5 69.7 20.2 72.7 21.5 C 75.8 22.8 80.3 21.9 82.9 23.8 C 85.5 25.6 85.6 29.0 87.3 32.0 C 89.1 35.0 93.1 37.0 92.7 40.3 C 92.3 43.5 85.9 46.7 85.0 50.0 C 84.0 53.3 88.4 55.9 87.7 58.6 C 86.9 61.3 82.6 62.4 80.9 64.9 C 79.3 67.4 79.6 69.8 78.5 72.7 C 77.3 75.6 77.1 79.5 74.7 80.9 C 72.2 82.4 67.9 80.1 64.9 80.9 C 61.9 81.7 60.7 83.4 58.1 85.3 C 55.4 87.1 53.1 90.5 50.0 91.1 C 46.9 91.8 43.9 90.5 41.1 89.0 C 38.3 87.5 37.1 84.1 34.2 82.8 C 31.3 81.5 28.0 82.7 24.8 81.7 C 21.6 80.6 17.4 79.8 16.5 76.8 C 15.5 73.7 20.8 67.9 19.3 64.8 C 17.8 61.7 10.2 62.2 8.2 59.5 C 6.2 56.9 7.4 53.2 8.3 50.0 C 9.2 46.8 11.5 44.4 13.2 41.6 C 14.9 38.8 17.5 38.0 17.8 34.5 C 18.2 31.0 13.6 24.8 15.2 22.2 C 16.7 19.7 23.0 21.2 26.5 20.5 C 30.0 19.8 32.0 19.3 34.8 18.4 C 37.6 17.6 39.5 17.5 42.2 15.8 C 44.9 14.1 47.2 8.8 50.0 9.0 Z"/>
    </clipPath>
  </defs>

  <!-- Cuerpo principal -->
  <path d="M 50.0 9.0 C 52.8 9.1 54.7 15.2 57.6 16.6 C 60.5 18.0 63.3 15.8 66.1 16.6 C 68.8 17.5 69.7 20.2 72.7 21.5 C 75.8 22.8 80.3 21.9 82.9 23.8 C 85.5 25.6 85.6 29.0 87.3 32.0 C 89.1 35.0 93.1 37.0 92.7 40.3 C 92.3 43.5 85.9 46.7 85.0 50.0 C 84.0 53.3 88.4 55.9 87.7 58.6 C 86.9 61.3 82.6 62.4 80.9 64.9 C 79.3 67.4 79.6 69.8 78.5 72.7 C 77.3 75.6 77.1 79.5 74.7 80.9 C 72.2 82.4 67.9 80.1 64.9 80.9 C 61.9 81.7 60.7 83.4 58.1 85.3 C 55.4 87.1 53.1 90.5 50.0 91.1 C 46.9 91.8 43.9 90.5 41.1 89.0 C 38.3 87.5 37.1 84.1 34.2 82.8 C 31.3 81.5 28.0 82.7 24.8 81.7 C 21.6 80.6 17.4 79.8 16.5 76.8 C 15.5 73.7 20.8 67.9 19.3 64.8 C 17.8 61.7 10.2 62.2 8.2 59.5 C 6.2 56.9 7.4 53.2 8.3 50.0 C 9.2 46.8 11.5 44.4 13.2 41.6 C 14.9 38.8 17.5 38.0 17.8 34.5 C 18.2 31.0 13.6 24.8 15.2 22.2 C 16.7 19.7 23.0 21.2 26.5 20.5 C 30.0 19.8 32.0 19.3 34.8 18.4 C 37.6 17.6 39.5 17.5 42.2 15.8 C 44.9 14.1 47.2 8.8 50.0 9.0 Z" fill="url(#rg)"/>

  <!-- Brillo radial -->
  <path d="M 50.0 9.0 C 52.8 9.1 54.7 15.2 57.6 16.6 C 60.5 18.0 63.3 15.8 66.1 16.6 C 68.8 17.5 69.7 20.2 72.7 21.5 C 75.8 22.8 80.3 21.9 82.9 23.8 C 85.5 25.6 85.6 29.0 87.3 32.0 C 89.1 35.0 93.1 37.0 92.7 40.3 C 92.3 43.5 85.9 46.7 85.0 50.0 C 84.0 53.3 88.4 55.9 87.7 58.6 C 86.9 61.3 82.6 62.4 80.9 64.9 C 79.3 67.4 79.6 69.8 78.5 72.7 C 77.3 75.6 77.1 79.5 74.7 80.9 C 72.2 82.4 67.9 80.1 64.9 80.9 C 61.9 81.7 60.7 83.4 58.1 85.3 C 55.4 87.1 53.1 90.5 50.0 91.1 C 46.9 91.8 43.9 90.5 41.1 89.0 C 38.3 87.5 37.1 84.1 34.2 82.8 C 31.3 81.5 28.0 82.7 24.8 81.7 C 21.6 80.6 17.4 79.8 16.5 76.8 C 15.5 73.7 20.8 67.9 19.3 64.8 C 17.8 61.7 10.2 62.2 8.2 59.5 C 6.2 56.9 7.4 53.2 8.3 50.0 C 9.2 46.8 11.5 44.4 13.2 41.6 C 14.9 38.8 17.5 38.0 17.8 34.5 C 18.2 31.0 13.6 24.8 15.2 22.2 C 16.7 19.7 23.0 21.2 26.5 20.5 C 30.0 19.8 32.0 19.3 34.8 18.4 C 37.6 17.6 39.5 17.5 42.2 15.8 C 44.9 14.1 47.2 8.8 50.0 9.0 Z" fill="url(#rg2)"/>

  <!-- Anillos de textura (de la tostonera) -->
  <g clip-path="url(#clip)" fill="none" stroke="#9A6000" stroke-opacity="0.35">
    <ellipse cx="50" cy="50" rx="31" ry="30" stroke-width="1.4"/>
    <ellipse cx="50" cy="50" rx="22" ry="21" stroke-width="1.1"/>
    <ellipse cx="50" cy="50" rx="13" ry="12.5" stroke-width="0.9"/>
  </g>

  <!-- Centro pálido -->
  <ellipse cx="50" cy="50" rx="6" ry="5.5" fill="#FFF8DC" opacity="0.75"/>

  <!-- Granos de sal -->
  <rect x="36" y="29" width="3.2" height="2.5" rx="0.4" fill="white" opacity="0.9"/>
  <rect x="57" y="33" width="2.5" height="2.0" rx="0.4" fill="white" opacity="0.85"/>
  <rect x="43" y="21" width="2.8" height="2.5" rx="0.4" fill="white" opacity="0.9"/>
  <rect x="64" y="49" width="2.2" height="2.2" rx="0.4" fill="white" opacity="0.8"/>
  <rect x="32" y="57" width="3.0" height="2.2" rx="0.4" fill="white" opacity="0.87"/>
  <rect x="53" y="67" width="2.5" height="2.0" rx="0.4" fill="white" opacity="0.82"/>
  <rect x="41" y="62" width="2.0" height="1.6" rx="0.4" fill="white" opacity="0.78"/>
  <rect x="63" y="37" width="2.2" height="2.2" rx="0.4" fill="white" opacity="0.83"/>
</svg>